<?xml version="1.0" standalone="no"?>
<!DOCTYPE svg PUBLIC "-//W3C//DTD SVG 20010904//EN"
 "http://www.w3.org/TR/2001/REC-SVG-20010904/DTD/svg10.dtd">
<svg version="1.0" xmlns="http://www.w3.org/2000/svg"
 width="800.000000pt" height="800.000000pt" viewBox="0 0 800.000000 800.000000"
 preserveAspectRatio="xMidYMid meet">
<metadata>
Created by potrace 1.14, written by Peter Selinger 2001-2017
</metadata>
<g transform="translate(0.000000,800.000000) scale(0.100000,-0.100000)"
fill="#000000" stroke="none">
<path d="M7085 7984 c-174 -40 -339 -149 -450 -298 -36 -48 -113 -193 -120
-225 -2 -9 -14 -47 -27 -86 l-22 -70 -3 -3652 -3 -3653 770 0 770 0 -2 3647
-3 3648 -27 92 c-58 197 -164 355 -313 469 -73 55 -162 97 -265 125 -64 17
-234 19 -305 3z"/>
<path d="M2855 6100 c-182 -33 -350 -139 -475 -300 -54 -70 -123 -213 -152
-315 l-22 -80 -3 -2702 -3 -2703 770 0 770 0 -3 2703 c-3 2531 -4 2706 -20
2762 -10 33 -19 67 -22 76 -8 34 -76 174 -110 225 -80 120 -230 244 -350 289
-27 11 -52 20 -55 20 -3 1 -23 7 -45 13 -53 16 -217 23 -280 12z"/>
<path d="M690 4607 c-3 -3 -23 -7 -45 -11 -182 -26 -383 -164 -496 -339 -21
-33 -39 -66 -39 -73 0 -7 -4 -14 -8 -16 -11 -4 -70 -158 -78 -201 -3 -18 -9
-54 -14 -82 -5 -27 -9 -913 -9 -1967 l-1 -1918 770 0 770 0 -3 1948 c-1 1071
-5 1956 -9 1967 -3 11 -9 34 -13 50 -15 62 -43 143 -66 186 -13 24 -23 46 -24
49 -3 15 -68 110 -76 110 -5 0 -9 6 -9 14 0 20 -112 120 -190 170 -79 51 -150
81 -241 102 -34 8 -213 17 -219 11z"/>
<path d="M4995 3576 c-80 -17 -189 -62 -247 -103 -26 -18 -50 -33 -52 -33 -10
0 -117 -110 -155 -159 -59 -75 -130 -221 -146 -296 -3 -14 -7 -35 -10 -47 -2
-13 -9 -45 -14 -73 -6 -31 -10 -595 -11 -1458 l0 -1407 770 0 771 0 -4 1437
c-1 791 -6 1450 -10 1465 -4 15 -12 39 -17 53 -5 14 -7 25 -5 25 3 0 -1 16 -9
35 -9 20 -15 36 -15 38 0 1 -4 13 -9 27 -5 14 -9 27 -8 30 0 3 -9 20 -22 38
-13 17 -21 32 -17 32 3 0 -13 28 -37 62 -53 76 -148 174 -208 215 -40 27 -126
75 -140 78 -3 1 -36 12 -75 24 -84 27 -239 35 -330 17z"/>
</g>
</svg>
